<svg xmlns="http://www.w3.org/2000/svg" xmlns:xlink="http://www.w3.org/1999/xlink" version="1.1" x="0px" y="0px" viewBox="0 0 64 64" enable-background="new 0 0 64 64" xml:space="preserve"><g><g><g><g><path d="M18.002,57C14.692,57,12,54.308,12,50.998s2.692-6.002,6.002-6.002c0.553,0,1,0.447,1,1s-0.447,1-1,1      c-2.207,0-4.002,1.795-4.002,4.002S15.795,55,18.002,55c0.553,0,1,0.447,1,1S18.555,57,18.002,57z"></path></g><g><path d="M13,16c-0.553,0-1-0.448-1-1C12,11.691,14.692,9,18.002,9c0.553,0,1,0.448,1,1s-0.447,1-1,1C15.795,11,14,12.794,14,15      C14,15.553,13.553,16,13,16z"></path></g><g><path d="M13,25c-0.553,0-1-0.448-1-1C12,20.691,14.692,18,18.002,18c0.553,0,1,0.448,1,1s-0.447,1-1,1      C15.795,20,14,21.794,14,24C14,24.553,13.553,25,13,25z"></path></g><g><path d="M13,34c-0.553,0-1-0.447-1-1c0-3.309,2.692-6,6.002-6c0.553,0,1,0.448,1,1s-0.447,1-1,1C15.795,29,14,30.794,14,33      C14,33.553,13.553,34,13,34z"></path></g><g><path d="M13,43c-0.553,0-1-0.447-1-1c0-3.309,2.692-6,6.002-6c0.553,0,1,0.447,1,1s-0.447,1-1,1C15.795,38,14,39.794,14,42      C14,42.553,13.553,43,13,43z"></path></g><g><path d="M23,57h-5c-0.553,0-1-0.447-1-1s0.447-1,1-1h5c0.553,0,1,0.447,1,1S23.553,57,23,57z"></path></g><g><path d="M47,57c-0.553,0-1-0.447-1-1s0.447-1,1-1c1.654,0,3-1.346,3-3c0-0.553,0.447-1,1-1s1,0.447,1,1      C52,54.757,49.757,57,47,57z"></path></g><g><path d="M47,47H18c-0.553,0-1-0.447-1-1s0.447-1,1-1h29c0.553,0,1,0.447,1,1S47.553,47,47,47z"></path></g><g><path d="M47,11H18c-0.553,0-1-0.448-1-1s0.447-1,1-1h29c0.553,0,1,0.448,1,1S47.553,11,47,11z"></path></g><g><path d="M47,47c-0.553,0-1-0.447-1-1s0.447-1,1-1c3,0,3-1.505,3-2c0-0.553,0.447-1,1-1s1,0.447,1,1C52,45.505,50.131,47,47,47z"></path></g><g><path d="M51,15c-0.553,0-1-0.448-1-1c0-1.654-1.346-3-3-3c-0.553,0-1-0.448-1-1s0.447-1,1-1c2.757,0,5,2.243,5,5      C52,14.552,51.553,15,51,15z"></path></g><g><path d="M51,53c-0.553,0-1-0.447-1-1V14c0-0.552,0.447-1,1-1s1,0.448,1,1v38C52,52.553,51.553,53,51,53z"></path></g><g><path d="M47,57c-0.553,0-1-0.447-1-1V46c0-0.553,0.447-1,1-1s1,0.447,1,1v10C48,56.553,47.553,57,47,57z"></path></g><g><path d="M31,52H21c-0.553,0-1-0.447-1-1s0.447-1,1-1h10c0.553,0,1,0.447,1,1S31.553,52,31,52z"></path></g><g><path d="M23,59c-0.553,0-1-0.447-1-1v-7c0-0.553,0.447-1,1-1s1,0.447,1,1v7C24,58.553,23.553,59,23,59z"></path></g><g><path d="M29,59c-0.553,0-1-0.447-1-1v-7c0-0.553,0.447-1,1-1s1,0.447,1,1v7C30,58.553,29.553,59,29,59z"></path></g><g><path d="M29,59c-0.104,0-0.211-0.017-0.316-0.052l-3-1c-0.523-0.174-0.807-0.74-0.632-1.265      c0.175-0.523,0.736-0.809,1.265-0.632l3,1c0.523,0.174,0.807,0.74,0.632,1.265C29.809,58.735,29.419,59,29,59z"></path></g><g><path d="M23,59c-0.419,0-0.809-0.265-0.948-0.684c-0.175-0.524,0.108-1.091,0.632-1.265l3-1c0.527-0.177,1.09,0.108,1.265,0.632      c0.175,0.524-0.108,1.091-0.632,1.265l-3,1C23.211,58.983,23.104,59,23,59z"></path></g><g><path d="M47,57H29c-0.553,0-1-0.447-1-1s0.447-1,1-1h18c0.553,0,1,0.447,1,1S47.553,57,47,57z"></path></g><g><path d="M13,51.998c-0.553,0-1-0.447-1-1V15c0-0.552,0.447-1,1-1s1,0.448,1,1v35.998C14,51.551,13.553,51.998,13,51.998z"></path></g><g><path d="M21,46.998c-0.553,0-1-0.447-1-1V10c0-0.552,0.447-1,1-1s1,0.448,1,1v35.998C22,46.551,21.553,46.998,21,46.998z"></path></g><g><path d="M21,20h-2.998c-0.553,0-1-0.448-1-1s0.447-1,1-1H21c0.553,0,1,0.448,1,1S21.553,20,21,20z"></path></g><g><path d="M21,29h-2.998c-0.553,0-1-0.448-1-1s0.447-1,1-1H21c0.553,0,1,0.448,1,1S21.553,29,21,29z"></path></g><g><path d="M21,38h-2.998c-0.553,0-1-0.447-1-1s0.447-1,1-1H21c0.553,0,1,0.447,1,1S21.553,38,21,38z"></path></g></g><g><path d="M36,39c-6.065,0-11-4.935-11-11c0-6.065,4.935-11,11-11s11,4.935,11,11C47,34.065,42.065,39,36,39z M36,19     c-4.963,0-9,4.038-9,9c0,4.963,4.037,9,9,9s9-4.038,9-9C45,23.037,40.963,19,36,19z"></path></g><g><path d="M36,35c-3.859,0-7-3.141-7-7s3.141-7,7-7s7,3.14,7,7S39.859,35,36,35z M36,23c-2.757,0-5,2.243-5,5c0,2.757,2.243,5,5,5     s5-2.243,5-5C41,25.243,38.757,23,36,23z"></path></g><g><path d="M36,31c-1.654,0-3-1.346-3-3s1.346-3,3-3s3,1.346,3,3S37.654,31,36,31z M36,27c-0.552,0-1,0.449-1,1s0.448,1,1,1     s1-0.449,1-1S36.552,27,36,27z"></path></g><g><path d="M36,36c-0.553,0-1-0.447-1-1v-2c0-0.552,0.447-1,1-1s1,0.448,1,1v2C37,35.553,36.553,36,36,36z"></path></g><g><path d="M36,24c-0.553,0-1-0.448-1-1v-2c0-0.552,0.447-1,1-1s1,0.448,1,1v2C37,23.553,36.553,24,36,24z"></path></g><g><path d="M40.949,33.949c-0.256,0-0.512-0.097-0.707-0.292l-1.414-1.415c-0.391-0.391-0.391-1.023,0-1.414s1.023-0.391,1.414,0     l1.414,1.414c0.391,0.391,0.391,1.024,0,1.415C41.461,33.853,41.205,33.949,40.949,33.949z"></path></g><g><path d="M32.465,25.465c-0.256,0-0.512-0.098-0.707-0.293l-1.414-1.415c-0.391-0.391-0.391-1.024,0-1.415     c0.391-0.39,1.023-0.39,1.414,0l1.414,1.415c0.391,0.391,0.391,1.024,0,1.415C32.977,25.368,32.721,25.465,32.465,25.465z"></path></g><g><path d="M43,29.001h-2c-0.553,0-1-0.448-1-1s0.447-1,1-1h2c0.553,0,1,0.448,1,1S43.553,29.001,43,29.001z"></path></g><g><path d="M31,29.001C31,29.001,31,29.001,31,29.001L28.999,29C28.447,29,28,28.552,28,28s0.448-1,1-1c0,0,0,0,0.001,0l2,0.001     c0.552,0,0.999,0.448,0.999,1S31.552,29.001,31,29.001z"></path></g><g><path d="M39.535,25.466c-0.256,0-0.512-0.098-0.707-0.293c-0.391-0.391-0.391-1.023,0-1.414l1.415-1.415     c0.391-0.391,1.023-0.391,1.414,0s0.391,1.023,0,1.414l-1.415,1.415C40.047,25.369,39.791,25.466,39.535,25.466z"></path></g><g><path d="M31.05,33.95c-0.256,0-0.512-0.098-0.707-0.293c-0.391-0.391-0.391-1.023,0-1.414l1.415-1.414     c0.391-0.39,1.023-0.39,1.414,0s0.391,1.024,0,1.415l-1.415,1.414C31.562,33.854,31.306,33.95,31.05,33.95z"></path></g><g><g><g><path d="M61,11c-0.553,0-1-0.448-1-1V6c0-0.552,0.447-1,1-1s1,0.448,1,1v4C62,10.552,61.553,11,61,11z"></path></g><g><path d="M62,9h-2c-0.553,0-1-0.448-1-1s0.447-1,1-1h2c0.553,0,1,0.448,1,1S62.553,9,62,9z"></path></g></g><g><g><path d="M5,60c-0.553,0-1-0.447-1-1v-4c0-0.553,0.447-1,1-1s1,0.447,1,1v4C6,59.553,5.553,60,5,60z"></path></g><g><path d="M6,58H4c-0.553,0-1-0.447-1-1s0.447-1,1-1h2c0.553,0,1,0.447,1,1S6.553,58,6,58z"></path></g></g><g><g><path d="M7,12c-0.553,0-1-0.448-1-1V5c0-0.552,0.447-1,1-1s1,0.448,1,1v6C8,11.552,7.553,12,7,12z"></path></g><g><path d="M8,9H6C5.447,9,5,8.553,5,8s0.447-1,1-1h2c0.553,0,1,0.448,1,1S8.553,9,8,9z"></path></g></g><g><g><path d="M59,62c-0.553,0-1-0.447-1-1v-6c0-0.553,0.447-1,1-1s1,0.447,1,1v6C60,61.553,59.553,62,59,62z"></path></g><g><path d="M60,59h-2c-0.553,0-1-0.447-1-1s0.447-1,1-1h2c0.553,0,1,0.447,1,1S60.553,59,60,59z"></path></g></g><g><path d="M45.03,6c-0.553,0-1.005-0.448-1.005-1s0.442-1,0.994-1h0.011c0.552,0,1,0.448,1,1S45.582,6,45.03,6z"></path></g><g><path d="M57.03,26c-0.553,0-1.005-0.448-1.005-1s0.442-1,0.994-1h0.011c0.552,0,1,0.448,1,1S57.582,26,57.03,26z"></path></g><g><path d="M1.03,26c-0.553,0-1.005-0.448-1.005-1s0.442-1,0.994-1H1.03c0.552,0,1,0.448,1,1S1.582,26,1.03,26z"></path></g><g><path d="M63.03,43c-0.553,0-1.005-0.447-1.005-1s0.442-1,0.994-1h0.011c0.552,0,1,0.447,1,1S63.582,43,63.03,43z"></path></g><g><path d="M7.03,42c-0.553,0-1.005-0.447-1.005-1s0.442-1,0.994-1H7.03c0.552,0,1,0.447,1,1S7.582,42,7.03,42z"></path></g><g><path d="M38.03,62c-0.553,0-1.005-0.447-1.005-1s0.442-1,0.994-1h0.011c0.552,0,1,0.447,1,1S38.582,62,38.03,62z"></path></g><g><path d="M26.03,4c-0.553,0-1.005-0.448-1.005-1s0.442-1,0.994-1h0.011c0.552,0,1,0.448,1,1S26.582,4,26.03,4z"></path></g></g></g></g></svg>