<svg xmlns="http://www.w3.org/2000/svg" xmlns:xlink="http://www.w3.org/1999/xlink" version="1.1" x="0px" y="0px" viewBox="0 0 65 65" enable-background="new 0 0 65 65" xml:space="preserve"><path d="M59.186,53.529c-0.586-0.586-1.535-0.586-2.121,0l-1.149,1.148l-8.942-8.941l1.383-1.383  c0.001-0.001,0.002-0.001,0.003-0.002s0.001-0.002,0.002-0.003l3.298-3.298c0.586-0.586,0.586-1.535,0-2.121s-1.535-0.586-2.121,0  l-2.236,2.236C26.76,20.5,16.369,6.326,15.412,1.847c-0.006-0.028-0.018-0.053-0.026-0.08c-0.014-0.053-0.03-0.104-0.05-0.155  c-0.017-0.043-0.037-0.084-0.058-0.125c-0.023-0.045-0.047-0.09-0.075-0.134c-0.025-0.04-0.053-0.077-0.082-0.114  c-0.032-0.04-0.064-0.079-0.1-0.116c-0.033-0.034-0.068-0.065-0.104-0.096c-0.025-0.022-0.045-0.047-0.072-0.067  c-0.016-0.012-0.034-0.019-0.05-0.03c-0.037-0.026-0.076-0.047-0.116-0.07c-0.047-0.027-0.094-0.053-0.143-0.074  c-0.038-0.017-0.078-0.028-0.117-0.042c-0.053-0.017-0.104-0.035-0.158-0.046c-0.042-0.009-0.085-0.013-0.128-0.019  c-0.052-0.006-0.104-0.013-0.157-0.014c-0.046-0.001-0.092,0.003-0.138,0.006c-0.052,0.004-0.103,0.008-0.153,0.017  c-0.018,0.003-0.035,0.002-0.053,0.006c-0.031,0.006-0.058,0.02-0.087,0.028C13.495,0.735,13.447,0.75,13.4,0.768  s-0.091,0.04-0.135,0.062c-0.042,0.022-0.084,0.044-0.125,0.07c-0.043,0.028-0.083,0.058-0.123,0.089  c-0.037,0.028-0.072,0.058-0.106,0.09c-0.039,0.037-0.073,0.076-0.108,0.117c-0.019,0.022-0.041,0.041-0.059,0.064l-7.07,9.429  c-0.008,0.011-0.013,0.023-0.021,0.034c-0.031,0.043-0.056,0.089-0.082,0.135C5.55,10.9,5.525,10.94,5.506,10.982  c-0.019,0.043-0.033,0.089-0.048,0.135c-0.016,0.047-0.033,0.094-0.044,0.142c-0.01,0.044-0.014,0.089-0.02,0.134  c-0.007,0.052-0.015,0.104-0.017,0.155c-0.001,0.042,0.004,0.085,0.006,0.127c0.003,0.057,0.006,0.113,0.016,0.169  c0.002,0.013,0.001,0.025,0.003,0.037c1.198,6.045,13.529,21.54,31.525,39.657l-1.888,1.888c-0.586,0.586-0.586,1.535,0,2.121  c0.293,0.293,0.677,0.439,1.061,0.439s0.768-0.146,1.061-0.439l2.943-2.943c0.001-0.001,0.002-0.001,0.003-0.002  s0.001-0.002,0.002-0.003l0.911-0.911l8.942,8.942l-1.149,1.149c-0.586,0.586-0.586,1.535,0,2.121  c0.293,0.293,0.677,0.439,1.061,0.439s0.768-0.146,1.061-0.439l6.04-6.041l2.21-2.209C59.771,55.065,59.771,54.115,59.186,53.529z   M8.511,11.909l5.005-6.675c3.635,7.441,15.651,21.937,31.663,38.054l-6.128,6.128C20.035,30.274,10.08,16.854,8.511,11.909z   M44.852,47.857l3.41,3.41l-1.709,1.709l-3.41-3.41L44.852,47.857z M48.674,55.098l1.709-1.709l3.411,3.41l-1.709,1.71  L48.674,55.098z"></path></svg>