<svg xmlns="http://www.w3.org/2000/svg" xmlns:xlink="http://www.w3.org/1999/xlink" version="1.1" x="0px" y="0px" viewBox="0 0 219.708 236.752" style="enable-background:new 0 0 219.708 236.752;" xml:space="preserve"><g><path d="M189.226,130.601c-3.735-4.412-7.059-9.094-9.544-14.327c-3.26-6.871-3.362-13.905-1.976-21.281   c1.183-6.292,2.85-12.25,2.471-18.712c-0.409-6.984-3.298-13.924-1.783-20.95c2.064-9.572,10.104-16.741,13.189-25.949   c6.57-19.606-22.581-28.994-36.813-29.369c-7.943-0.209-16.343,2.201-22.13,7.786c-3.022,2.917-4.388,7.237-5.954,11.013   c-1.756,4.235-3.511,8.473-5.787,12.461c-1.023,1.793-2.324,3.575-3.889,4.935c-1.391,1.21-2.818,0.33-4.382-0.34   c-4.906-2.102-8.224-6.814-12.054-10.308c-6.035-5.506-13.548-9.708-21.141-12.628C66.253,7.863,43.293,9.791,42.939,28.453   c-0.167,8.802,4.858,16.821,8.929,24.288c3.366,6.174,9.592,15.919,4.749,22.82c-3.142,3.787-7.184,1.714-11.109-0.032   c-4.754-2.114-9.101-5.165-13.466-7.964c-6.646-4.261-14.413-8.442-22.586-6.754c-7.149,1.477-10.37,6.338-9.232,13.444   c1.597,9.964,9.9,15.877,15.028,23.889c3.924,6.131,3.269,12.153,3.133,19.081c-0.133,6.758,3.492,12.192,8.827,16.033   c3.791,2.729,9.003,3.363,13.453,2.128c5.096-1.414,7.734-4.389,11.675-7.602c8.279-6.751,23.988-1.489,32.268,2.515   c4.609,2.229,8.772,5.447,12.15,9.281c3.511,3.986,4.867,9.171,6.351,14.144c1.177,3.945,2.703,7.591,6.482,9.628   c5.297,2.855,12.063,1.899,17.761,1.353c13.845-1.327,28.802-1.395,41.882,4.076c27.007,11.294,37.035,40.674,41.726,67.019   c0.402,2.261,7.134-0.005,7.696-1.632c1.713-4.951,0.839-11.378,0.75-16.547c-0.123-7.172-0.659-14.334-1.439-21.463   c-1.424-13.013-3.586-26.881-8.8-38.978C204.759,146.953,196.305,138.962,189.226,130.601z M210.763,203.391   c-0.584-1.441-1.205-2.871-1.872-4.285c-4.988-10.579-12.794-19.674-21.978-26.828c-8.078-6.294-17.309-9.49-27.359-10.897   c-5.941-0.833-12.029-1.312-18.028-1.218c-7.58,0.118-15.826,2.736-23.288,0.851c-8.507-2.149-8.058-15.407-12.231-21.535   c-5.743-8.434-15.294-13.469-24.903-16.206c-9.479-2.7-19.688-2.636-28.971,0.731c-4.445,1.612-7.199,4.59-10.691,7.553   c-3.19,2.708-8.253-1.886-10.322-3.892c-3.086-2.99-4.484-6.52-4.946-10.711c-0.383-3.472,0.236-7.073,0.234-10.558   c-0.002-3.734-1.604-7.158-3.429-10.323c-3.048-5.289-7.921-9.177-11.19-14.288c-2.164-3.382-3.611-7.29-4.067-11.278   c-0.211-1.847,0.058-3.634,0.813-5.323c0.856-1.917,2.579-1.054,5.15-0.351C28.521,68.89,48.801,93.254,63.697,75.3   c0.118-0.143,0.196-0.271,0.242-0.389c4.259-6.532,0.989-13.913-2.227-20.262c-4.13-8.153-9.719-16.067-10.945-25.329   c-0.593-4.477,0.97-8.819,3.771-12.277c3.077-3.797,7.546-3.499,11.927-2.752c9.031,1.539,17.771,6.761,24.857,12.363   c6.956,5.501,12.116,14.079,21.979,13.87c8.252-0.175,13.354-6.588,16.805-13.294c3.926-7.63,5.636-20.066,14.994-22.871   c8.952-2.685,20.261,1.136,27.985,5.661c7.509,4.398,13.366,11.536,10.83,20.554c-2.217,7.883-8.335,14.293-11.711,21.676   c-4.366,9.55,0.263,19.551,0.358,29.441c0.063,6.455-2.462,12.923-3.292,19.299c-0.727,5.578,0.072,10.899,2.136,16.098   c3.417,8.604,9.965,15.706,16,22.543c7.103,8.045,13.244,16.034,16.479,26.403c3.427,10.983,5.289,22.459,6.538,33.874   C210.55,201.068,210.656,202.229,210.763,203.391z"></path><ellipse transform="matrix(0.8222 -0.5692 0.5692 0.8222 -15.1525 48.3525)" cx="69.824" cy="48.432" rx="6" ry="9.334"></ellipse><ellipse transform="matrix(0.8222 -0.5692 0.5692 0.8222 -6.2007 53.6776)" cx="82.824" cy="36.765" rx="6" ry="9.334"></ellipse><ellipse transform="matrix(0.8222 -0.5692 0.5692 0.8222 -19.7935 64.6667)" cx="93.613" cy="64.016" rx="6" ry="12.477"></ellipse></g></svg>