<svg xmlns:dc="http://purl.org/dc/elements/1.1/" xmlns:cc="http://creativecommons.org/ns#" xmlns:rdf="http://www.w3.org/1999/02/22-rdf-syntax-ns#" xmlns:svg="http://www.w3.org/2000/svg" xmlns="http://www.w3.org/2000/svg" xmlns:sodipodi="http://sodipodi.sourceforge.net/DTD/sodipodi-0.dtd" xmlns:inkscape="http://www.inkscape.org/namespaces/inkscape" viewBox="0 0 48 48.000001" version="1.1" x="0px" y="0px"><g transform="translate(0,-1004.3622)"><path style="color:#000000;font-style:normal;font-variant:normal;font-weight:normal;font-stretch:normal;font-size:medium;line-height:normal;font-family:sans-serif;text-indent:0;text-align:start;text-decoration:none;text-decoration-line:none;text-decoration-style:solid;text-decoration-color:#000000;letter-spacing:normal;word-spacing:normal;text-transform:none;direction:ltr;block-progression:tb;writing-mode:lr-tb;baseline-shift:baseline;text-anchor:start;white-space:normal;clip-rule:nonzero;display:inline;overflow:visible;visibility:visible;opacity:1;isolation:auto;mix-blend-mode:normal;color-interpolation:sRGB;color-interpolation-filters:linearRGB;solid-color:#000000;solid-opacity:1;fill:#000000;fill-opacity:1;fill-rule:nonzero;stroke:none;stroke-width:1.99999976;stroke-linecap:round;stroke-linejoin:round;stroke-miterlimit:4;stroke-dasharray:none;stroke-dashoffset:0;stroke-opacity:1;color-rendering:auto;image-rendering:auto;shape-rendering:auto;text-rendering:auto;enable-background:accumulate" d="m 23.99999,1004.3622 c -5.234745,0 -9.499791,4.2652 -9.499791,9.5 0,5.2349 4.265046,9.5 9.499791,9.5 5.234745,0 9.499791,-4.2651 9.499791,-9.5 0,-5.2348 -4.265046,-9.5 -9.499791,-9.5 z m 0,2 c 4.153889,0 7.499835,3.346 7.499835,7.5 0,4.154 -3.345946,7.5 -7.499835,7.5 -4.153888,0 -7.499835,-3.346 -7.499835,-7.5 0,-4.154 3.345947,-7.5 7.499835,-7.5 z"></path><path style="color:#000000;font-style:normal;font-variant:normal;font-weight:normal;font-stretch:normal;font-size:medium;line-height:normal;font-family:sans-serif;text-indent:0;text-align:start;text-decoration:none;text-decoration-line:none;text-decoration-style:solid;text-decoration-color:#000000;letter-spacing:normal;word-spacing:normal;text-transform:none;direction:ltr;block-progression:tb;writing-mode:lr-tb;baseline-shift:baseline;text-anchor:start;white-space:normal;clip-rule:nonzero;display:inline;overflow:visible;visibility:visible;opacity:1;isolation:auto;mix-blend-mode:normal;color-interpolation:sRGB;color-interpolation-filters:linearRGB;solid-color:#000000;solid-opacity:1;fill:#000000;fill-opacity:1;fill-rule:evenodd;stroke:none;stroke-width:2;stroke-linecap:round;stroke-linejoin:round;stroke-miterlimit:4;stroke-dasharray:none;stroke-dashoffset:0;stroke-opacity:1;color-rendering:auto;image-rendering:auto;shape-rendering:auto;text-rendering:auto;enable-background:accumulate" d="m 9.0042258,1013.3622 a 1.000078,1.0001 0 0 0 -0.3984286,0.082 l -6.9998461,3 a 1.000078,1.0001 0 0 0 -0.5253792,1.3125 l 2.9999341,7 a 1.000078,1.0001 0 0 0 0.548816,0.5351 l 9.370888,3.7482 0,5.9902 -5.8006539,7.7324 a 1.000078,1.0001 0 0 0 -0.1992144,0.5996 l 0,8 a 1.000078,1.0001 0 0 0 0.999978,1 l 7.9998243,0 a 1.000078,1.0001 0 0 0 0.800764,-0.3984 l 5.699093,-7.6016 0.999978,0 5.699094,7.6016 a 1.000078,1.0001 0 0 0 0.800763,0.3984 l 7.999824,0 a 1.000078,1.0001 0 0 0 0.999978,-1 l 0,-8 a 1.000078,1.0001 0 0 0 -0.199214,-0.5996 l -5.800654,-7.7324 0,-5.9902 9.370888,-3.7481 a 1.000078,1.0001 0 0 0 0.548816,-0.5351 l 2.999934,-7 a 1.000078,1.0001 0 0 0 -0.525379,-1.3125 l -6.999846,-3 a 1.000078,1.0001 0 0 0 -0.789045,0 l -6.999846,3 a 1.000078,1.0001 0 1 0 0.789045,1.8378 l 6.605323,-2.832 5.687375,2.4375 -2.443305,5.7012 -9.615023,3.8457 a 1.000078,1.0001 0 0 0 -0.628893,0.9277 l 0,7 a 1.000078,1.0001 0 0 0 0.199215,0.6016 l 5.800653,7.7324 0,6.666 -6.499857,0 -5.699093,-7.5996 a 1.000078,1.0001 0 0 0 -0.800764,-0.4004 l -1.999956,0 a 1.000078,1.0001 0 0 0 -0.800763,0.4004 l -5.699094,7.5996 -6.499857,0 0,-6.666 5.800654,-7.7324 a 1.000078,1.0001 0 0 0 0.199214,-0.6016 l 0,-7 a 1.000078,1.0001 0 0 0 -0.628892,-0.9277 l -9.6150236,-3.8457 -2.4433056,-5.7012 5.6873749,-2.4375 6.6053243,2.832 a 1.000078,1.0001 0 1 0 0.789044,-1.8378 l -6.9998458,-3 a 1.000078,1.0001 0 0 0 -0.3906164,-0.082 z"></path><path style="color:#000000;font-style:normal;font-variant:normal;font-weight:normal;font-stretch:normal;font-size:medium;line-height:normal;font-family:sans-serif;text-indent:0;text-align:start;text-decoration:none;text-decoration-line:none;text-decoration-style:solid;text-decoration-color:#000000;letter-spacing:normal;word-spacing:normal;text-transform:none;direction:ltr;block-progression:tb;writing-mode:lr-tb;baseline-shift:baseline;text-anchor:start;white-space:normal;clip-rule:nonzero;display:inline;overflow:visible;visibility:visible;opacity:1;isolation:auto;mix-blend-mode:normal;color-interpolation:sRGB;color-interpolation-filters:linearRGB;solid-color:#000000;solid-opacity:1;fill:#000000;fill-opacity:1;fill-rule:evenodd;stroke:none;stroke-width:1.99999964;stroke-linecap:round;stroke-linejoin:round;stroke-miterlimit:4;stroke-dasharray:none;stroke-dashoffset:0;stroke-opacity:1;color-rendering:auto;image-rendering:auto;shape-rendering:auto;text-rendering:auto;enable-background:accumulate" d="m 20.984432,1010.3622 a 1.0000778,1.0000998 0 0 0 -0.984354,1.0157 l 0,0.9707 a 1.0000778,1.0000998 0 1 0 1.999956,0 l 0,-0.9707 a 1.0000778,1.0000998 0 0 0 -1.015602,-1.0157 z"></path><path style="color:#000000;font-style:normal;font-variant:normal;font-weight:normal;font-stretch:normal;font-size:medium;line-height:normal;font-family:sans-serif;text-indent:0;text-align:start;text-decoration:none;text-decoration-line:none;text-decoration-style:solid;text-decoration-color:#000000;letter-spacing:normal;word-spacing:normal;text-transform:none;direction:ltr;block-progression:tb;writing-mode:lr-tb;baseline-shift:baseline;text-anchor:start;white-space:normal;clip-rule:nonzero;display:inline;overflow:visible;visibility:visible;opacity:1;isolation:auto;mix-blend-mode:normal;color-interpolation:sRGB;color-interpolation-filters:linearRGB;solid-color:#000000;solid-opacity:1;fill:#000000;fill-opacity:1;fill-rule:evenodd;stroke:none;stroke-width:1.99999964;stroke-linecap:round;stroke-linejoin:round;stroke-miterlimit:4;stroke-dasharray:none;stroke-dashoffset:0;stroke-opacity:1;color-rendering:auto;image-rendering:auto;shape-rendering:auto;text-rendering:auto;enable-background:accumulate" d="m 26.9843,1010.3622 a 1.0000778,1.0000998 0 0 0 -0.984354,1.0157 l 0,0.9707 a 1.0000778,1.0000998 0 1 0 1.999956,0 l 0,-0.9707 a 1.0000778,1.0000998 0 0 0 -1.015602,-1.0157 z"></path><path style="color:#000000;font-style:normal;font-variant:normal;font-weight:normal;font-stretch:normal;font-size:medium;line-height:normal;font-family:sans-serif;text-indent:0;text-align:start;text-decoration:none;text-decoration-line:none;text-decoration-style:solid;text-decoration-color:#000000;letter-spacing:normal;word-spacing:normal;text-transform:none;direction:ltr;block-progression:tb;writing-mode:lr-tb;baseline-shift:baseline;text-anchor:start;white-space:normal;clip-rule:nonzero;display:inline;overflow:visible;visibility:visible;opacity:1;isolation:auto;mix-blend-mode:normal;color-interpolation:sRGB;color-interpolation-filters:linearRGB;solid-color:#000000;solid-opacity:1;fill:#000000;fill-opacity:1;fill-rule:evenodd;stroke:none;stroke-width:1.99999988;stroke-linecap:round;stroke-linejoin:round;stroke-miterlimit:4;stroke-dasharray:none;stroke-dashoffset:0;stroke-opacity:1;color-rendering:auto;image-rendering:auto;shape-rendering:auto;text-rendering:auto;enable-background:accumulate" d="m 15.945479,1040.3642 a 1.0000779,1.0000999 0 0 0 -0.167964,0.023 l -13.9723496,2.9942 a 1.0000779,1.0000999 0 1 0 0.4179595,1.955 l 13.9723491,-2.9921 a 1.0000779,1.0000999 0 0 0 -0.249995,-1.9805 z"></path><path style="color:#000000;font-style:normal;font-variant:normal;font-weight:normal;font-stretch:normal;font-size:medium;line-height:normal;font-family:sans-serif;text-indent:0;text-align:start;text-decoration:none;text-decoration-line:none;text-decoration-style:solid;text-decoration-color:#000000;letter-spacing:normal;word-spacing:normal;text-transform:none;direction:ltr;block-progression:tb;writing-mode:lr-tb;baseline-shift:baseline;text-anchor:start;white-space:normal;clip-rule:nonzero;display:inline;overflow:visible;visibility:visible;opacity:1;isolation:auto;mix-blend-mode:normal;color-interpolation:sRGB;color-interpolation-filters:linearRGB;solid-color:#000000;solid-opacity:1;fill:#000000;fill-opacity:1;fill-rule:evenodd;stroke:none;stroke-width:1.99999988;stroke-linecap:round;stroke-linejoin:round;stroke-miterlimit:4;stroke-dasharray:none;stroke-dashoffset:0;stroke-opacity:1;color-rendering:auto;image-rendering:auto;shape-rendering:auto;text-rendering:auto;enable-background:accumulate" d="m 0.93995003,1041.3642 a 1.0000779,1.0000999 0 0 0 -0.90623007,1.2558 l 0.99216564,3.9727 a 1.0006711,1.0006931 0 1 0 1.9413637,-0.4863 l -0.9921657,-3.9727 a 1.0000779,1.0000999 0 0 0 -1.03513357,-0.7695 z"></path><path style="color:#000000;font-style:normal;font-variant:normal;font-weight:normal;font-stretch:normal;font-size:medium;line-height:normal;font-family:sans-serif;text-indent:0;text-align:start;text-decoration:none;text-decoration-line:none;text-decoration-style:solid;text-decoration-color:#000000;letter-spacing:normal;word-spacing:normal;text-transform:none;direction:ltr;block-progression:tb;writing-mode:lr-tb;baseline-shift:baseline;text-anchor:start;white-space:normal;clip-rule:nonzero;display:inline;overflow:visible;visibility:visible;opacity:1;isolation:auto;mix-blend-mode:normal;color-interpolation:sRGB;color-interpolation-filters:linearRGB;solid-color:#000000;solid-opacity:1;fill:#000000;fill-opacity:1;fill-rule:evenodd;stroke:none;stroke-width:1.99999988;stroke-linecap:round;stroke-linejoin:round;stroke-miterlimit:4;stroke-dasharray:none;stroke-dashoffset:0;stroke-opacity:1;color-rendering:auto;image-rendering:auto;shape-rendering:auto;text-rendering:auto;enable-background:accumulate" d="m 29.025271,1026.3642 a 1.0000779,1.0000999 0 0 0 -0.220698,1.9805 l 13.972348,2.9921 a 1.0000779,1.0000999 0 1 0 0.417959,-1.955 l -13.972349,-2.9942 a 1.0000779,1.0000999 0 0 0 -0.19726,-0.023 z"></path><path style="color:#000000;font-style:normal;font-variant:normal;font-weight:normal;font-stretch:normal;font-size:medium;line-height:normal;font-family:sans-serif;text-indent:0;text-align:start;text-decoration:none;text-decoration-line:none;text-decoration-style:solid;text-decoration-color:#000000;letter-spacing:normal;word-spacing:normal;text-transform:none;direction:ltr;block-progression:tb;writing-mode:lr-tb;baseline-shift:baseline;text-anchor:start;white-space:normal;clip-rule:nonzero;display:inline;overflow:visible;visibility:visible;opacity:1;isolation:auto;mix-blend-mode:normal;color-interpolation:sRGB;color-interpolation-filters:linearRGB;solid-color:#000000;solid-opacity:1;fill:#000000;fill-opacity:1;fill-rule:evenodd;stroke:none;stroke-width:1.99999988;stroke-linecap:round;stroke-linejoin:round;stroke-miterlimit:4;stroke-dasharray:none;stroke-dashoffset:0;stroke-opacity:1;color-rendering:auto;image-rendering:auto;shape-rendering:auto;text-rendering:auto;enable-background:accumulate" d="m 44.028847,1027.3642 a 1.0000779,1.0000999 0 0 0 -1.003884,0.7695 l -0.992166,3.9727 a 1.0006709,1.0006929 0 1 0 1.941363,0.4863 l 0.992166,-3.9727 a 1.0000779,1.0000999 0 0 0 -0.937479,-1.2558 z"></path></g></svg>