<svg xmlns="http://www.w3.org/2000/svg" xmlns:xlink="http://www.w3.org/1999/xlink" version="1.1" x="0px" y="0px" viewBox="0 0 100 100" style="enable-background:new 0 0 100 100;" xml:space="preserve"><g><path d="M71.2,46c-1.3-5.6,0.3-6.5-2.7-12.4c0.4-5.5-2.6-6.2-5.5-7l-0.6-0.2l-5,0.1l4-0.6l-0.5-0.4c-1.2-1.3-3.8-2.7-4.2-3.1   c-0.4-0.4-0.4-1.4-0.4-1.4c0.3-0.4,0.6-0.8,0.9-1.3l0.9-0.2c1.8-0.6,2.4-3.1,2.6-4c0.2-0.9,0.9-2.4,0.9-3c0-0.7-0.3-0.5-0.4-0.3   C61,12.3,59.6,13.8,59,14c0,0-0.1,0-0.1,0.1c0-0.7-0.1-1.4-0.2-1.7c-0.1-0.7-0.3-1.6-0.8-2.4c0.4-0.3,0.9-0.9,1.7-1.8   c1.5-2-0.4-4.6-1.1-5.3c-0.7-0.7-0.7-0.3-0.7-0.3s0.4,1,0.6,2.6c0.1,1.1-1.4,2.2-2.5,2.8c-0.8-0.4-1.8-0.8-3.1-0.9   c-2.4-0.3-5,1.1-5.9,2.7c-0.8,1.3-1.2,2.9-1,4.5c0.1,0.6,0.1,1.1,0.2,1.4c0,0.3,0,0.7,0,1c0,2.9,1.2,5.4,3.6,6.3l0,0l0.1,2.6   l-0.8-1.8c0,0-0.9,0-2.3,0.8c-0.7,0.4-1.4,0.9-2.2,1.4l2.2,0.5l-3.2,0.1c-0.5,0.3-1,0.6-1.5,0.9c-1.2,0.6-1.8,2.1-2,3.3   c0,0-0.3,1.6,0.1,4.3c0,0-0.8,2.3-0.8,2.7c0,0.4-2.1,3.6-1.7,5.4c0,0-0.4-0.7-3.8-1.6c-3.4-0.9-2-0.5-2-0.5s-1.6-1.4-3-1.9   l-0.7-7.5c5.4-0.5,6.7-3.2,6.3-5.2c-0.4-1.7-1-4.9-1.3-5.9l1.3-0.2l-2.2-2.3l-1.5,2.9l1.7-0.2c0.2,1.2,0.7,5.1,0.7,5.8   c-0.1,0.8,0.6,3.4-5,3.8l-0.6-6.9l-0.7-10.8l1.3-0.2l-2.1-3.2l-1.8,3.6l1.6,0.2l0.7,12.6l0.3,4.8c-4.4-0.1-4.8-2.6-4.8-2.9   c0-0.2-0.2-4.7-0.3-6.3l1.5-0.2l-2.2-2.3l-1.5,2.9l1.2-0.2c0,1.1-0.1,4.7-0.1,6.1c0,1.6,1.7,4.4,6.4,4.4l0.5,7.5   c-1.4,0.5-2.7,1.8-2.4,3.2c0.3,1.5,1.1,3.9,2.9,3.9l2.7,44.1c0,0,0.9,2.3,3.2,0l-4-44.6c0.4-0.2,0.8-0.4,1.2-0.9   c0,0,2.8,3.2,6.8,3.9c1,0.2,3.6,1.4,4.1,0.4c0.5-1.1,2.8-6.2,2.8-6.2l0.8-4.2c0,0-1.6-1.1-1.7-2.9c-0.2-1.8,0.2-4.6,0.2-4.6   s-0.1,4.1,0.9,5.3c1,1.2,1.6,1.5,1.6,1.5l2.6-0.1c0,0-1.3,1-2.6,1.2l-0.4,1.1v0.9c0,0-0.1,1.6,0.1,2.2c0.2,0.6,0.6,2.1,1.2,2.4   c0.5,0.4,0.5,3.4,0.5,3.4l0.1,0.5c-0.7,0.4-1.3,5-1.5,6c-0.2,1.1-2.5,4.8-3.8,6.1C40.9,63,38.9,72,46.1,76.7c0,0,1.6,1.4,0.9,2.3   c-0.7,0.9-3.6,9.1-5.2,10.2c-1.6,1.1-3.2,2.3-2.7,3.8l1.6-0.9l-0.5,1.8c0,0,4.1,0.5,5.7-1.8c0,0,1.1-6.4,4.8-12.5c0,0,2-3,1.3-4.1   c-0.7-1.1-2.3-1.2-2-4.1c0.2-1.4,2.1-5,2.1-5s0.4-2.3,0.9-4.8c0,0-1.6,11.8,8.2,13.1c0,0,3.8,1.8,3,5.7c-0.7,3.9-4.7,12.5-4.7,12.5   s-2.7,2.1-3,3l0.5,0.9l1.8-1.1l-0.5,2c0,0,2,0.9,5-0.1c0.8-0.3,1.2-1.1,0.9-1.8c-0.3-0.8-0.6-1.9-0.4-2.9c0.4-1.8,1.1-6.1,5-14.5   c0,0,2.1-2.9,0.5-4.5c-0.9-0.9-6.1-8.1-4.5-13.6c0.5-1.7,0.4-3.3,0.1-4.9l0.8,0.1c-0.5-0.7-0.7-3.1-0.7-3.1h-1.1   c-0.6-1.6-1.3-2.9-1.6-3.8c0.5-2.8,1-5.6,0.9-5.5c0,0-2.1-4.6-2.1-9.9c0,0,1.7,9.4,4.7,12c0,0,0.7,1.2,0.7,2s-0.3,1.3-0.6,3.8   c-0.4,2.5,1.4,6.9,1.1,8c-0.4,1.1-1,1.2-1.2,1.7c-0.2,0.5-1.2,2-0.6,2.2c0.5,0.3,1.3,1,1.3,1l0.5-1.4c0,0,0.4,0.9,0.1,1.2   c-0.3,0.3-0.5,0.9-0.5,1.2c0,0.3,0.3,1,0.8,0.7c0.5-0.3,1.6-0.4,1.6-0.4s1.4-0.6,2.7-1.3c1.3-0.6-0.4-3.9-1.1-4.7   C70.1,58.1,72.4,51.6,71.2,46z M47.1,16.1c0,0,0.5-0.6,1-0.6c0.6,0,1.1,0.5,1.1,0.5C48.2,17.3,47.1,16.1,47.1,16.1z M53.4,15.6   c0.6,0,1.1,0.5,1.1,0.5c-1.1,1.2-2.2,0-2.2,0S52.8,15.6,53.4,15.6z M55.5,54.1c-0.1,0-0.2,0-0.3,0.1c0.1-1.4,0.3-4.8-0.1-6.8   c-0.5,0.6-1.8,1.4-4.6,0.2L50,51.4l-0.5-4.2c-0.5,0-1.8-0.2-2-1.3c0,0,1.1,0.6,1.9,0.4c-0.5-1.9-0.1-3.5-0.1-3.5s-2.1,0.6-2.8-1.1   c0,0,1.3,0.6,2.4,0.5l0.2-0.1c-0.4-1.7,0.3-2.8,0.3-2.8c0,1.6,0.3,2.4,0.6,2.9c0.7,0.2,2.1,0.6,3.7,0.1c0-1,0-1.8,0-1.8   c1.4,4.7,2.1,5.2,2.1,5.2C56.9,49.4,56,52.7,55.5,54.1z M51.2,37.5c-0.2-0.3-0.3-0.7-0.2-1.1l0.1-1.1l0.5,1.5   c1.9,3,8.8,1.7,8.8,1.7C54.1,40.6,51.9,38.6,51.2,37.5z"></path><path d="M53.7,42.7c-0.4,0.5-1.3,1.2-3.6,0.4c-1.1,0.8-0.4,2.5,0.1,3.4C51,47,53,47.8,55,47c-0.1-0.4-0.2-0.7-0.4-1   C54,45.2,53.8,43.9,53.7,42.7z"></path><path d="M44.1,16.1c0,0.8,0.7,2.2,1.7,2.7l0,0v0l-0.3-3c0,0,0-0.5-0.3-1c-0.3-0.5-1.1-1-1.6-1.7c-0.5-0.7-0.6-0.2-0.6-0.2   s-0.3,0.3,0.1,0.8C43.3,14.3,44.1,15.4,44.1,16.1z"></path><path d="M46.1,9.7c0,0,0.6-1.1,1.7-1.9l0.4-0.3c0,0-2.2-0.1-3-1.4c-0.7-1.3,0-3.9-0.1-4.2c-0.1-0.3-2.2,1.9-1.7,4.5   C43.8,8.5,45.5,9.8,46.1,9.7z"></path><path d="M70.6,35.5l0.7,2.6c0,0,7.7,4.6,7.4,9.4c-0.3,3.9-6.3,4.8-6.3,4.8l-0.3,2.6c0,0,8.7-0.7,8.7-7.7   C80.8,40.2,70.6,35.5,70.6,35.5z"></path><path d="M38.2,21.3L38.2,21.3c-1,5.3,2,6.4,2,6.4c0.5-0.9,1.4-1.3,1.4-1.3c-2.1-0.6-2.7-2.8-2.8-4.8c0.4-0.2,1.2-0.5,2-0.2   c0,0-1.7-2.8-0.8-6.5c0,0-3.7,4.4-3.6,5.9C36.5,20.8,37.9,20.3,38.2,21.3z"></path></g></svg>