<svg xmlns="http://www.w3.org/2000/svg" xmlns:xlink="http://www.w3.org/1999/xlink" viewBox="0 0 53 68" version="1.1" x="0px" y="0px"><title>double_ax</title><desc>Created with Sketch.</desc><g stroke="none" stroke-width="1" fill="none" fill-rule="evenodd"><g transform="translate(-423.000000, -56.000000)" fill="#000000"><g transform="translate(455.668584, 92.779800) scale(-1, -1) rotate(60.000000) translate(-455.668584, -92.779800) translate(422.168584, 67.779800)"><path d="M58,24 L58,22 L58,26 L4,26 L4,24 L58,24 Z M0,22 L0,28 C0,29.1045695 0.8954305,30 2,30 L60,30 C61.1045695,30 62,29.1045695 62,28 L62,22 C62,20.8954305 61.1045695,20 60,20 L2,20 C0.8954305,20 0,20.8954305 0,22 Z"></path><path d="M59.5481949,15.9533166 C60.8957733,15.1240376 62.3507562,14.3629696 63.8068664,13.6909188 C64.3169539,13.4554938 64.78968,13.2485013 65.2120768,13.0721158 C65.460645,12.9683181 65.6335617,12.8991514 65.7179582,12.8666912 C66.4903422,12.5696204 67,11.8275435 67,11 C67,4.82729429 57.2679272,1.13686838e-13 48,1.13686838e-13 C38.7320728,1.13686838e-13 29,4.82729429 29,11 C29,11.8275435 29.5096578,12.5696204 30.2820418,12.8666912 C30.3664383,12.8991514 30.539355,12.9683181 30.7879232,13.0721158 C31.21032,13.2485013 31.6830461,13.4554938 32.1931336,13.6909188 C33.6492438,14.3629696 35.1042267,15.1240376 36.4518051,15.9533166 C39.960009,18.1122113 42,20.3091247 42,22 C42,23.1045695 42.8954305,24 44,24 C45.1045695,24 46,23.1045695 46,22 C46,18.4408753 43.164991,15.3877887 38.5481949,12.5466834 C37.0520233,11.6259624 35.4601312,10.7932804 33.8693664,10.0590812 C33.3130476,9.80231874 33.3121027,9.83903164 33.3121027,9.83903164 C34.8188863,6.94863847 41.5332271,4 48,4 C53.6120283,4 59.410505,6.22068015 61.8300862,8.69681053 C62.5753061,9.45944729 62.6676233,9.81508843 62.6676233,9.81508843 C62.6676233,9.81508843 62.3139946,9.97445309 62.1306336,10.0590812 C60.5398688,10.7932804 58.9479767,11.6259624 57.4518051,12.5466834 C52.835009,15.3877887 50,18.4408753 50,22 C50,23.1045695 50.8954305,24 52,24 C53.1045695,24 54,23.1045695 54,22 C54,20.3091247 56.039991,18.1122113 59.5481949,15.9533166 Z"></path><path d="M59.5481949,41.9533166 C60.8957733,41.1240376 62.3507562,40.3629696 63.8068664,39.6909188 C64.3169539,39.4554938 64.78968,39.2485013 65.2120768,39.0721158 C65.460645,38.9683181 65.6335617,38.8991514 65.7179582,38.8666912 C66.4903422,38.5696204 67,37.8275435 67,37 C67,30.8272943 57.2679272,26 48,26 C38.7320728,26 29,30.8272943 29,37 C29,37.8275435 29.5096578,38.5696204 30.2820418,38.8666912 C30.3664383,38.8991514 30.539355,38.9683181 30.7879232,39.0721158 C31.21032,39.2485013 31.6830461,39.4554938 32.1931336,39.6909188 C33.6492438,40.3629696 35.1042267,41.1240376 36.4518051,41.9533166 C39.960009,44.1122113 42,46.3091247 42,48 C42,49.1045695 42.8954305,50 44,50 C45.1045695,50 46,49.1045695 46,48 C46,44.4408753 43.164991,41.3877887 38.5481949,38.5466834 C37.0520233,37.6259624 35.4601312,36.7932804 33.8693664,36.0590812 C33.3130476,35.8023187 33.3121027,35.8390316 33.3121027,35.8390316 C34.8188863,32.9486385 41.5332271,30 48,30 C53.6120283,30 59.410505,32.2206801 61.8300862,34.6968105 C62.5753061,35.4594473 62.6676233,35.8150884 62.6676233,35.8150884 C62.6676233,35.8150884 62.3139946,35.9744531 62.1306336,36.0590812 C60.5398688,36.7932804 58.9479767,37.6259624 57.4518051,38.5466834 C52.835009,41.3877887 50,44.4408753 50,48 C50,49.1045695 50.8954305,50 52,50 C53.1045695,50 54,49.1045695 54,48 C54,46.3091247 56.039991,44.1122113 59.5481949,41.9533166 Z" transform="translate(48.000000, 38.000000) scale(1, -1) translate(-48.000000, -38.000000) "></path></g></g></g></svg>