<svg xmlns="http://www.w3.org/2000/svg" xmlns:xlink="http://www.w3.org/1999/xlink" version="1.1" x="0px" y="0px" viewBox="0 0 100 100" style="enable-background:new 0 0 100 100;" xml:space="preserve"><g><path d="M88.2,15.1c-13.1-0.5-25.8-2.8-37.7-6.7c-0.3-0.1-0.6-0.1-0.9,0c-12,3.9-24.7,6.2-37.7,6.7c-0.8,0-1.5,0.7-1.4,1.5   c0.8,41.5,15.2,68.8,39.3,74.9c0.1,0,0.2,0,0.4,0c0.1,0,0.2,0,0.4,0c24.1-6.2,38.4-33.5,39.3-74.9C89.7,15.8,89,15.2,88.2,15.1z    M50,88.6C27.8,82.7,14.5,57,13.4,18.1c12.6-0.6,25-2.8,36.6-6.6c11.7,3.8,24,6,36.6,6.6C85.5,57,72.2,82.7,50,88.6z"></path><path d="M49.6,14.7c-10.1,3.2-20.8,5.2-31.6,6c-0.8,0.1-1.4,0.8-1.4,1.6c1.9,34.7,13.6,57,33,63c0.1,0,0.3,0.1,0.4,0.1   c0.1,0,0.3,0,0.4-0.1c19.4-6,31.1-28.3,33-63c0-0.8-0.6-1.5-1.4-1.6c-10.9-0.8-21.5-2.9-31.6-6C50.2,14.7,49.8,14.7,49.6,14.7z    M19.6,23.6c9.9-0.9,19.6-2.7,28.9-5.5v63.6C32,75.4,21.6,54.5,19.6,23.6z M51.5,81.8V18.2c9.3,2.7,19,4.6,28.9,5.5   C78.4,54.5,68,75.4,51.5,81.8z"></path></g></svg>