<svg xmlns="http://www.w3.org/2000/svg" xmlns:xlink="http://www.w3.org/1999/xlink" version="1.1" x="0px" y="0px" viewBox="0 0 64 64" style="enable-background:new 0 0 64 64;" xml:space="preserve"><g><path d="M59.879,49c-0.834,0-1.618,0.325-2.207,0.914L56.5,51.086l-10.94-10.94c-3.801-3.801-6.881-8.198-9.153-13.068   c-2.372-5.083-5.585-9.67-9.552-13.637l-9.662-9.662C15.401,1.987,13.019,1,10.485,1C5.255,1,1,5.255,1,10.485   c0,2.534,0.987,4.916,2.778,6.707l9.662,9.662c3.966,3.966,8.554,7.18,13.637,9.552c4.871,2.272,9.267,5.353,13.068,9.153   l10.94,10.94l-1.172,1.172C49.325,58.261,49,59.045,49,59.879C49,61.6,50.4,63,52.121,63c0.834,0,1.618-0.325,2.207-0.914   l7.758-7.758C62.675,53.739,63,52.955,63,52.121C63,50.4,61.6,49,59.879,49z M19,29.106c-0.682-0.535-1.348-1.092-2-1.667V17   h10.439c0.574,0.652,1.132,1.318,1.667,2H19V29.106z M5.192,15.778C3.779,14.364,3,12.485,3,10.485C3,6.358,6.358,3,10.485,3   c2,0,3.879,0.779,5.293,2.192l9.662,9.662c0.048,0.048,0.092,0.098,0.139,0.146H15v10.58c-0.048-0.047-0.098-0.092-0.146-0.139   L5.192,15.778z M41.56,44.146c-3.966-3.966-8.554-7.18-13.637-9.552c-2.431-1.134-4.743-2.47-6.923-3.995V21h9.598   c1.526,2.18,2.861,4.492,3.995,6.923c2.372,5.083,5.585,9.67,9.552,13.637l10.94,10.94L52.5,55.086L41.56,44.146z M60.672,52.914   l-7.758,7.758C52.702,60.883,52.421,61,52.121,61C51.503,61,51,60.497,51,59.879c0-0.3,0.117-0.581,0.328-0.793l7.758-7.758   C59.298,51.117,59.579,51,59.879,51C60.497,51,61,51.503,61,52.121C61,52.421,60.883,52.702,60.672,52.914z"></path><path d="M19.051,11.293l-4.688-4.688c-0.247-0.246-0.516-0.469-0.801-0.663l-1.125,1.654c0.182,0.124,0.355,0.267,0.513,0.424   l4.687,4.687L19.051,11.293z"></path><path d="M8.667,5.31l0.666,1.886c0.494-0.174,1.037-0.229,1.555-0.173l0.224-1.987C10.293,4.941,9.447,5.035,8.667,5.31z"></path></g></svg>