<svg xmlns="http://www.w3.org/2000/svg" xmlns:xlink="http://www.w3.org/1999/xlink" version="1.1" x="0px" y="0px" viewBox="0 0 100 100" style="enable-background:new 0 0 100 100;" xml:space="preserve"><path d="M84.4,35v7.9h-5.7V35h-8.6V21h-9.6v11h-5.7V21H51v-5h7.8v-6H51c0-0.6-0.4-1-1-1s-1,0.4-1,1v6v5h-3.8v11h-5.7V21h-9.6v14  h-8.6v7.9h-5.7V35H5v56h24.9h2h8.9h19.6h7.9h2H95V35H84.4z M56.8,12v2H51v-2H56.8z M29.9,89H7V70.5H10c0.5,0,1-0.4,1-1s-0.4-1-1-1H7  V37h6.7v7.9h9.6V37h6.7V89z M42.7,89V70.5h15.7V89H42.7z M51.8,62.5c3.3,0.2,5.9,2.7,6.4,6h-6.4V62.5z M49.9,68.5h-7.1  c0.5-3.4,3.3-6,6.8-6h0.4V68.5z M60.3,89V69.5c0-5-3.9-9-8.8-9h-2c-4.9,0-8.8,4-8.8,9V89h-8.9V63.5h2.6c0.5,0,1-0.4,1-1s-0.4-1-1-1  h-2.6V35V23h5.7v11h9.6V23h5.7v11h9.6V23h5.7v12v27.5h-2.8c-0.5,0-1,0.4-1,1s0.4,1,1,1h2.8V89H60.3z M70.1,89V37h6.7v7.9h9.6V37H93  v36.5h-3.2c-0.5,0-1,0.4-1,1s0.4,1,1,1H93V89H70.1z M42.1,39.1h-0.2c-2.7,0-4.9,2.2-4.9,5v10.1h10V44.1  C46.9,41.4,44.7,39.1,42.1,39.1z M45,52.2h-6.1v-8.1c0-1.7,1.3-3,2.9-3h0.2c1.6,0,2.9,1.3,2.9,3V52.2z M18.6,48.9h-0.2  c-2.7,0-4.9,2.2-4.9,5V64h10V53.9C23.5,51.1,21.3,48.9,18.6,48.9z M21.5,62h-6.1v-8.1c0-1.7,1.3-3,2.9-3h0.2c1.6,0,2.9,1.3,2.9,3V62  z M62.6,44.1c0-2.8-2.2-5-4.9-5h-0.2c-2.7,0-4.9,2.2-4.9,5v10.1h10V44.1z M60.6,52.2h-6.1v-8.1c0-1.7,1.3-3,2.9-3h0.2  c1.6,0,2.9,1.3,2.9,3V52.2z M81.2,48.9h-0.2c-2.7,0-4.9,2.2-4.9,5V64h10V53.9C86.1,51.1,83.9,48.9,81.2,48.9z M84.1,62H78v-8.1  c0-1.7,1.3-3,2.9-3h0.2c1.6,0,2.9,1.3,2.9,3V62z M13.9,74.5c0,0.6-0.4,1-1,1H9.6c-0.5,0-1-0.4-1-1s0.4-1,1-1h3.3  C13.5,73.5,13.9,73.9,13.9,74.5z M38.4,67.5c0,0.6-0.4,1-1,1h-3.3c-0.5,0-1-0.4-1-1s0.4-1,1-1h3.3C37.9,66.5,38.4,66.9,38.4,67.5z   M65.8,59.5h-3.3c-0.5,0-1-0.4-1-1s0.4-1,1-1h3.3c0.5,0,1,0.4,1,1S66.3,59.5,65.8,59.5z"></path></svg>