<svg xmlns="http://www.w3.org/2000/svg" xmlns:xlink="http://www.w3.org/1999/xlink" version="1.1" x="0px" y="0px" viewBox="0 0 100 100" enable-background="new 0 0 100 100" xml:space="preserve"><g><g><path fill-rule="evenodd" clip-rule="evenodd" fill="#000000" d="M68.79,17.821h-3.238l0.027,48.943l7.724-14.122h0.014    l7.763,14.164V17.789h-3.225v7.796l-4.532-7.893l-4.532,7.893V17.821z M64.271,16.54h5.866l-0.052,4.513l3.237-5.866l3.218,5.866    V16.52h5.873l-0.025,52.673l1.288,2.35L83.67,92.262h1.941V95.5H14.389v-3.238h1.942V71.568l1.308-2.392v-52.65h5.867    l-0.052,4.513l3.237-5.867l3.218,5.867v-4.532h5.873L35.775,28.81h6.132l7.446-14.637V9.385h-2.577l-0.014-1.295h2.59V5.5h1.295    v2.589h2.59v1.295h-2.59v4.814l7.439,14.611h6.184V16.54z M72.422,29.858c0.25-0.255,0.555-0.382,0.913-0.382    s0.663,0.127,0.913,0.382c0.255,0.25,0.382,0.554,0.382,0.913c0,0.358-0.127,0.662-0.382,0.913    c-0.25,0.254-0.555,0.382-0.913,0.382s-0.663-0.127-0.913-0.382c-0.254-0.25-0.382-0.555-0.382-0.913    C72.04,30.413,72.168,30.108,72.422,29.858z M25.409,30.758c0-0.358,0.127-0.662,0.382-0.913c0.25-0.254,0.555-0.382,0.913-0.382    s0.663,0.127,0.913,0.382c0.255,0.25,0.382,0.555,0.382,0.913c0,0.358-0.127,0.663-0.382,0.913    c-0.25,0.255-0.555,0.382-0.913,0.382s-0.663-0.127-0.913-0.382C25.536,31.421,25.409,31.116,25.409,30.758z M52.317,40.347    l-1.734,1.845l-0.577-2.467l-0.583,2.467l-1.735-1.845l0.731,2.422l-2.421-0.731l1.845,1.735l-2.467,0.583l2.467,0.576    l-1.845,1.735l2.421-0.731l-0.731,2.428l1.735-1.852l0.583,2.467l0.577-2.467l1.734,1.852l-0.73-2.428l2.428,0.731l-1.852-1.735    l2.467-0.583l-2.467-0.577l1.852-1.735l-2.428,0.731L52.317,40.347z M45.532,45.501l-0.006,0.006    c-0.755-0.034-1.498-0.164-2.228-0.389c-0.332,0.121-0.66,0.263-0.984,0.428c0.083,0.617,0.231,1.205,0.448,1.761    c0.384-0.013,0.759-0.054,1.126-0.123c0.505-0.539,1.066-1.007,1.684-1.405v-0.006c0.146-0.091,0.293-0.179,0.44-0.266    C45.852,45.508,45.692,45.505,45.532,45.501z M43.823,41.648c-0.34-0.064-0.686-0.105-1.036-0.123    c-0.233,0.578-0.391,1.187-0.473,1.826c0.303,0.156,0.611,0.289,0.926,0.402c0.725-0.225,1.468-0.356,2.228-0.395v0.006h0.006    c0.172-0.004,0.346-0.006,0.518-0.006c-0.143-0.082-0.283-0.167-0.421-0.253h-0.006C44.921,42.696,44.341,42.21,43.823,41.648z     M46.063,38.956c-0.268-0.225-0.553-0.434-0.855-0.628c-0.237,0.186-0.468,0.391-0.692,0.615    c-0.225,0.224-0.432,0.458-0.622,0.699c0.186,0.29,0.386,0.563,0.602,0.823c0.742,0.168,1.448,0.425,2.117,0.77v0.006h0.006    c0.151,0.082,0.3,0.167,0.447,0.253c-0.078-0.143-0.156-0.285-0.234-0.428l-0.006-0.006    C46.482,40.391,46.227,39.689,46.063,38.956z M49.327,37.699c-0.121-0.323-0.261-0.643-0.421-0.958    c-0.626,0.083-1.222,0.237-1.787,0.466c0.017,0.362,0.056,0.716,0.117,1.062c0.547,0.509,1.022,1.077,1.424,1.703v0.006    l0.006,0.007c0.091,0.147,0.182,0.296,0.272,0.447c0-0.16,0.002-0.322,0.006-0.485l-0.006-0.014    C48.973,39.173,49.102,38.429,49.327,37.699z M51.107,36.741c-0.164,0.311-0.302,0.628-0.415,0.952    c0.221,0.726,0.351,1.465,0.389,2.221h-0.006v0.007c0.004,0.172,0.008,0.345,0.013,0.518c0.078-0.138,0.159-0.276,0.246-0.414    l0.007-0.013c0.409-0.643,0.896-1.224,1.456-1.741c0.061-0.346,0.102-0.7,0.123-1.062C52.347,36.974,51.742,36.819,51.107,36.741z     M49.994,16.449L43.7,28.81h12.586L49.994,16.449z M31.223,25.572l-4.532-7.893l-4.532,7.893v-7.763h-3.238l0.026,48.979    l7.737-14.145h0.013l7.751,14.139V17.776h-3.225V25.572z M48.705,44.349c0-0.358,0.127-0.663,0.382-0.913    c0.25-0.254,0.555-0.382,0.913-0.382s0.663,0.128,0.913,0.382c0.255,0.25,0.382,0.555,0.382,0.913    c0,0.358-0.127,0.662-0.382,0.913c-0.25,0.255-0.555,0.382-0.913,0.382s-0.663-0.127-0.913-0.382    C48.833,45.011,48.705,44.707,48.705,44.349z M50.013,35.375c2.503,0,4.64,0.885,6.411,2.654c1.769,1.77,2.654,3.907,2.654,6.411    c0,2.499-0.886,4.633-2.654,6.403v0.006h-0.007c-1.77,1.77-3.905,2.654-6.404,2.654c-2.504,0-4.641-0.885-6.41-2.654    c-1.77-1.77-2.655-3.906-2.655-6.41c0-2.5,0.885-4.636,2.655-6.411C45.377,36.26,47.514,35.375,50.013,35.375z M20.825,78.666    c-0.005-2.099,0.524-4.039,1.586-5.821c1.212-1.969,2.639-3.726,4.279-5.271c1.636,1.545,3.063,3.302,4.28,5.271    c1.062,1.782,1.588,3.723,1.58,5.821L32.518,90.32h3.238V72.19L26.69,55.401L17.626,72.19v18.13h3.237L20.825,78.666z     M22.812,35.284c0-0.794,0.147-1.498,0.44-2.111c0.333-0.673,0.726-1.275,1.178-1.807c0.454,0.531,0.849,1.133,1.185,1.807    c0.294,0.613,0.44,1.316,0.44,2.111l-0.012,3.885h-3.218L22.812,35.284z M30.575,35.284l-0.012,3.885h-3.225l-0.013-3.885    c0-0.794,0.146-1.498,0.44-2.111c0.336-0.673,0.732-1.275,1.185-1.807c0.453,0.531,0.848,1.133,1.184,1.807    C30.429,33.786,30.575,34.49,30.575,35.284z M46.821,47.819h0.006v-0.006c0.082-0.156,0.166-0.309,0.252-0.46    c-0.138,0.083-0.28,0.162-0.427,0.24l-0.007,0.006c-0.66,0.341-1.355,0.596-2.084,0.764c-0.233,0.281-0.454,0.578-0.661,0.893    c0.189,0.234,0.395,0.46,0.615,0.68c0.224,0.225,0.453,0.43,0.686,0.615c0.302-0.189,0.585-0.395,0.848-0.615    C46.219,49.199,46.476,48.493,46.821,47.819z M51.366,48.907V48.9l-0.006-0.006c-0.092-0.147-0.183-0.296-0.272-0.447    c0,0.159-0.002,0.321-0.007,0.485l0.007,0.013c-0.035,0.759-0.164,1.504-0.389,2.233c0.121,0.324,0.261,0.644,0.421,0.959    c0.626-0.083,1.222-0.238,1.788-0.467c-0.018-0.363-0.057-0.717-0.117-1.062C52.242,50.101,51.767,49.533,51.366,48.907z     M48.951,48.965v-0.007c-0.004-0.172-0.009-0.345-0.013-0.518c-0.078,0.139-0.16,0.277-0.246,0.415l-0.006,0.014    c-0.411,0.643-0.896,1.223-1.458,1.741c-0.06,0.345-0.101,0.699-0.123,1.062c0.574,0.233,1.179,0.388,1.813,0.467    c0.164-0.312,0.303-0.628,0.415-0.953c-0.22-0.725-0.35-1.464-0.389-2.22H48.951z M50.032,68.318c0.626,0,1.161,0.221,1.606,0.661    c0.44,0.443,0.659,0.979,0.659,1.605c0,0.621-0.219,1.155-0.659,1.599c-0.445,0.44-0.98,0.661-1.606,0.661    c-0.621,0-1.154-0.221-1.599-0.661c-0.44-0.443-0.661-0.978-0.661-1.599c0-0.626,0.22-1.162,0.661-1.605    C48.878,68.539,49.411,68.318,50.032,68.318z M61.039,88.377V87.73H38.993v0.646H61.039z M62.949,90.32v-0.647H37.05v0.647H62.949    z M82.374,92.262v-0.646H17.626v0.646H82.374z M84.316,94.206v-0.648H15.683v0.648H84.316z M67.449,78.802    c-0.008-2.189,0.519-4.175,1.579-5.957c1.214-1.969,2.641-3.726,4.281-5.271c1.636,1.545,3.062,3.302,4.279,5.271    c1.062,1.782,1.589,3.723,1.581,5.821L79.136,90.32h3.245l-0.007-18.13L73.31,55.401L64.245,72.19v18.13h3.236L67.449,78.802z     M53.413,47.645v-0.006h-0.008c-0.15-0.082-0.3-0.166-0.446-0.253c0.078,0.143,0.155,0.285,0.232,0.428l0.007,0.006    c0.345,0.669,0.601,1.371,0.765,2.104c0.268,0.224,0.552,0.434,0.854,0.627c0.237-0.185,0.468-0.39,0.693-0.615    c0.224-0.224,0.432-0.458,0.621-0.699c-0.186-0.289-0.387-0.563-0.604-0.822C54.787,48.247,54.081,47.99,53.413,47.645z     M54.559,45.521v-0.007h-0.007c-0.173,0.005-0.346,0.007-0.518,0.007c0.142,0.082,0.282,0.167,0.421,0.252h0.006    c0.644,0.41,1.225,0.896,1.741,1.457c0.342,0.065,0.688,0.106,1.036,0.123c0.234-0.578,0.392-1.187,0.473-1.826    c-0.302-0.156-0.61-0.289-0.926-0.401C56.061,45.351,55.317,45.482,54.559,45.521z M57.265,41.571    c-0.384,0.013-0.76,0.054-1.126,0.123c-0.505,0.54-1.066,1.008-1.684,1.405v0.006c-0.147,0.091-0.294,0.179-0.44,0.266    c0.16,0,0.318,0.002,0.479,0.006l0.007-0.006c0.755,0.035,1.498,0.164,2.228,0.389c0.331-0.121,0.661-0.264,0.983-0.427    C57.63,42.715,57.479,42.128,57.265,41.571z M54.824,38.327c-0.303,0.19-0.585,0.395-0.849,0.615    c-0.169,0.738-0.426,1.444-0.77,2.117h-0.008v0.006c-0.081,0.156-0.166,0.309-0.253,0.46c0.139-0.083,0.281-0.162,0.429-0.24    l0.006-0.006c0.66-0.341,1.356-0.596,2.085-0.764c0.232-0.28,0.453-0.578,0.661-0.894c-0.19-0.233-0.396-0.459-0.615-0.68    C55.285,38.718,55.057,38.513,54.824,38.327z M69.457,35.212c-0.009-0.738,0.134-1.413,0.428-2.026    c0.332-0.673,0.725-1.275,1.178-1.806c0.453,0.531,0.849,1.133,1.185,1.806c0.295,0.613,0.437,1.312,0.428,2.098v3.898h-3.218    V35.212z M73.97,35.212c-0.009-0.738,0.134-1.413,0.428-2.026c0.337-0.673,0.73-1.275,1.185-1.806    c0.453,0.531,0.848,1.133,1.185,1.806c0.295,0.613,0.436,1.289,0.428,2.026v3.97H73.97V35.212z M43.091,75.286    c0.673-1.257,1.465-2.377,2.376-3.36c0.911,0.983,1.703,2.104,2.376,3.36c0.592,1.139,0.885,2.396,0.881,3.768l-0.02,7.382h2.584    l-0.014-7.382c-0.004-1.372,0.287-2.629,0.874-3.768c0.678-1.257,1.473-2.377,2.383-3.36c0.911,0.983,1.702,2.104,2.376,3.36    c0.592,1.139,0.886,2.481,0.881,4.026l-0.02,7.123h4.532v1.941l0.647-0.003V75.415L50,63.43L37.057,75.425L37.05,88.377h0.648    v-1.941h4.539v-7.382C42.219,77.682,42.504,76.425,43.091,75.286z M37.057,71.543v2.018L50,61.5l12.949,12.066v-1.998l1.321-2.415    V30.104H35.775l-0.02,39.066L37.057,71.543z"></path></g></g></svg>