<svg xmlns="http://www.w3.org/2000/svg" xmlns:xlink="http://www.w3.org/1999/xlink" version="1.1" x="0px" y="0px" viewBox="0 0 100 100" enable-background="new 0 0 100 100" xml:space="preserve"><g><g><g><path fill="#000000" d="M54.99,30.88c-0.4,0-0.78-0.16-1.06-0.44c-0.28-0.28-0.44-0.66-0.44-1.06c0-0.39,0.16-0.78,0.44-1.06     c0.55-0.56,1.56-0.56,2.12,0c0.28,0.28,0.44,0.67,0.44,1.06c0,0.4-0.16,0.78-0.44,1.06C55.77,30.72,55.38,30.88,54.99,30.88z"></path></g><g><path fill="#000000" d="M71.62,47.51c-0.4,0-0.78-0.16-1.06-0.44c-0.28-0.28-0.44-0.66-0.44-1.06c0-0.39,0.16-0.78,0.44-1.06     c0.56-0.56,1.56-0.56,2.12,0c0.28,0.28,0.44,0.67,0.44,1.06s-0.16,0.78-0.44,1.06C72.4,47.35,72.01,47.51,71.62,47.51z"></path></g><g><path fill="#000000" d="M63.3,39.2c-0.39,0-0.78-0.16-1.06-0.44c-0.28-0.28-0.44-0.67-0.44-1.06c0-0.4,0.16-0.79,0.44-1.06     c0.56-0.56,1.57-0.56,2.12,0c0.28,0.28,0.44,0.66,0.44,1.06c0,0.39-0.16,0.78-0.44,1.06C64.08,39.04,63.7,39.2,63.3,39.2z"></path></g></g><g><g><path fill="#000000" d="M64.13,30.05c-0.39,0-0.78-0.16-1.05-0.44c-0.28-0.28-0.45-0.66-0.45-1.06c0-0.39,0.17-0.78,0.45-1.06     c0.55-0.56,1.55-0.56,2.12,0c0.28,0.28,0.43,0.66,0.43,1.06s-0.15,0.78-0.43,1.06C64.92,29.89,64.53,30.05,64.13,30.05z"></path></g><g><path fill="#000000" d="M72.45,38.36c-0.4,0-0.78-0.16-1.06-0.44c-0.28-0.27-0.44-0.66-0.44-1.06c0-0.39,0.16-0.78,0.44-1.06     c0.56-0.55,1.56-0.55,2.12,0c0.28,0.28,0.44,0.67,0.44,1.06c0,0.4-0.16,0.78-0.44,1.06C73.23,38.2,72.84,38.36,72.45,38.36z"></path></g></g><g><g><path fill="#000000" d="M74.11,20.07c-0.39,0-0.78-0.16-1.06-0.44c-0.28-0.28-0.44-0.66-0.44-1.06c0-0.39,0.16-0.78,0.44-1.06     c0.56-0.56,1.57-0.56,2.12,0c0.28,0.28,0.44,0.67,0.44,1.06c0,0.4-0.16,0.78-0.44,1.06C74.89,19.91,74.51,20.07,74.11,20.07z"></path></g><g><path fill="#000000" d="M82.43,28.39c-0.4,0-0.78-0.16-1.06-0.44c-0.28-0.28-0.44-0.67-0.44-1.06c0-0.4,0.16-0.78,0.44-1.06     c0.55-0.56,1.55-0.56,2.12-0.01c0.28,0.29,0.44,0.67,0.44,1.07c0,0.39-0.16,0.78-0.44,1.06C83.21,28.23,82.82,28.39,82.43,28.39z     "></path></g></g><g><g><path fill="#000000" d="M64.97,20.9c-0.4,0-0.79-0.16-1.06-0.44c-0.28-0.27-0.44-0.66-0.44-1.06c0-0.39,0.16-0.78,0.44-1.06     c0.55-0.55,1.56-0.56,2.12,0c0.28,0.28,0.44,0.67,0.44,1.06c0,0.4-0.16,0.79-0.44,1.06C65.75,20.74,65.36,20.9,64.97,20.9z"></path></g><g><path fill="#000000" d="M81.59,37.53c-0.39,0-0.78-0.16-1.06-0.43c-0.28-0.29-0.44-0.67-0.44-1.07c0-0.39,0.16-0.78,0.44-1.06     c0.56-0.55,1.56-0.56,2.12,0c0.29,0.28,0.45,0.67,0.45,1.06s-0.16,0.78-0.44,1.06C82.37,37.37,81.99,37.53,81.59,37.53z"></path></g><g><path fill="#000000" d="M73.28,29.22c-0.4,0-0.78-0.16-1.06-0.44c-0.28-0.28-0.44-0.67-0.44-1.06c0-0.4,0.16-0.78,0.44-1.06     c0.56-0.56,1.56-0.56,2.12,0c0.28,0.28,0.44,0.66,0.44,1.06c0,0.39-0.16,0.78-0.44,1.06C74.06,29.06,73.67,29.22,73.28,29.22z"></path></g></g><g><g><path fill="#000000" d="M28.38,57.49c-0.39,0-0.78-0.16-1.06-0.44s-0.44-0.66-0.44-1.06s0.16-0.78,0.44-1.06     c0.56-0.56,1.56-0.56,2.12,0c0.28,0.28,0.44,0.66,0.44,1.06s-0.16,0.78-0.44,1.06C29.16,57.33,28.77,57.49,28.38,57.49z"></path></g><g><path fill="#000000" d="M45.01,74.12c-0.39,0-0.78-0.16-1.06-0.44c-0.28-0.28-0.44-0.67-0.44-1.06c0-0.4,0.16-0.78,0.44-1.06     c0.56-0.56,1.57-0.56,2.12,0c0.28,0.28,0.44,0.66,0.44,1.06c0,0.39-0.16,0.78-0.44,1.06C45.79,73.96,45.4,74.12,45.01,74.12z"></path></g><g><path fill="#000000" d="M36.7,65.8c-0.4,0-0.78-0.16-1.06-0.44c-0.28-0.28-0.44-0.67-0.44-1.06s0.16-0.78,0.43-1.06     c0.56-0.56,1.57-0.56,2.13,0c0.28,0.28,0.44,0.67,0.44,1.06c0,0.4-0.16,0.78-0.44,1.06C37.48,65.64,37.09,65.8,36.7,65.8z"></path></g></g><g><g><path fill="#000000" d="M27.55,66.63c-0.4,0-0.78-0.16-1.06-0.43c-0.28-0.28-0.44-0.67-0.44-1.07c0-0.39,0.16-0.78,0.44-1.06     c0.56-0.55,1.56-0.55,2.12,0c0.28,0.28,0.44,0.67,0.44,1.06c0,0.4-0.16,0.79-0.44,1.07C28.33,66.47,27.94,66.63,27.55,66.63z"></path></g><g><path fill="#000000" d="M35.86,74.95c-0.39,0-0.78-0.16-1.06-0.44c-0.28-0.28-0.44-0.67-0.44-1.06c0-0.39,0.16-0.78,0.44-1.06     c0.56-0.56,1.57-0.56,2.13,0c0.27,0.28,0.44,0.67,0.44,1.06c0,0.39-0.17,0.78-0.45,1.06C36.65,74.79,36.26,74.95,35.86,74.95z"></path></g></g><g><g><path fill="#000000" d="M17.57,76.61c-0.39,0-0.78-0.16-1.06-0.44c-0.28-0.28-0.44-0.66-0.44-1.06c0-0.39,0.16-0.78,0.44-1.06     c0.56-0.56,1.56-0.56,2.12,0c0.28,0.28,0.44,0.67,0.44,1.06c0,0.4-0.16,0.78-0.44,1.06C18.35,76.45,17.97,76.61,17.57,76.61z"></path></g><g><path fill="#000000" d="M25.89,84.93c-0.4,0-0.78-0.16-1.06-0.44c-0.28-0.28-0.44-0.67-0.44-1.06c0-0.4,0.16-0.78,0.43-1.06     c0.57-0.56,1.57-0.56,2.13-0.01c0.28,0.29,0.44,0.67,0.44,1.07c0,0.39-0.16,0.78-0.44,1.06C26.67,84.77,26.28,84.93,25.89,84.93z     "></path></g></g><g><g><path fill="#000000" d="M18.4,67.47c-0.39,0-0.78-0.16-1.06-0.44c-0.28-0.28-0.44-0.67-0.44-1.06c0-0.4,0.16-0.78,0.44-1.06     c0.56-0.56,1.57-0.56,2.12,0c0.28,0.28,0.44,0.66,0.44,1.06c0,0.39-0.16,0.78-0.44,1.06C19.19,67.31,18.8,67.47,18.4,67.47z"></path></g><g><path fill="#000000" d="M35.03,84.1c-0.39,0-0.78-0.16-1.06-0.44c-0.28-0.28-0.44-0.67-0.44-1.06c0-0.4,0.16-0.79,0.44-1.06     c0.56-0.56,1.56-0.56,2.12-0.01c0.28,0.28,0.44,0.67,0.44,1.07c0,0.39-0.16,0.78-0.44,1.06C35.81,83.94,35.42,84.1,35.03,84.1z"></path></g><g><path fill="#000000" d="M26.72,75.78c-0.4,0-0.78-0.16-1.06-0.44c-0.28-0.28-0.44-0.66-0.44-1.06s0.16-0.78,0.44-1.06     c0.56-0.56,1.56-0.56,2.12,0c0.28,0.28,0.44,0.66,0.44,1.06c0,0.39-0.16,0.78-0.44,1.06C27.5,75.62,27.11,75.78,26.72,75.78z"></path></g></g><g><path fill="#000000" d="M25.136,96.556C25.135,96.556,25.135,96.556,25.136,96.556c-5.528,0-10.724-2.152-14.632-6.06    c-8.066-8.067-8.066-21.194,0-29.263c0,0,49.393-49.392,49.729-49.728c3.909-3.908,9.105-6.061,14.632-6.061    s10.723,2.152,14.63,6.06c8.067,8.067,8.067,21.194,0,29.263c-0.337,0.336-49.729,49.729-49.729,49.729    C35.858,94.404,30.662,96.556,25.136,96.556z M74.865,7.444c-4.993,0-9.687,1.944-13.218,5.474    c-0.335,0.336-49.729,49.729-49.729,49.729c-7.287,7.289-7.287,19.147,0,26.435c3.531,3.53,8.225,5.474,13.218,5.474    c4.993,0,9.687-1.944,13.217-5.475c0,0,49.394-49.395,49.729-49.729c7.287-7.288,7.287-19.146,0-26.434    C84.552,9.389,79.858,7.444,74.865,7.444z"></path></g><g><path fill="#000000" d="M50,67.136c-0.265,0-0.52-0.105-0.707-0.293L34.158,51.708c-0.391-0.391-0.391-1.023,0-1.414    l15.135-15.135c0.375-0.375,1.039-0.375,1.414,0l15.136,15.135c0.188,0.188,0.293,0.442,0.293,0.707s-0.105,0.52-0.293,0.707    L50.707,66.843C50.52,67.031,50.265,67.136,50,67.136z M36.279,51L50,64.722L63.722,51L50,37.279L36.279,51z"></path></g></g></svg>