<svg xmlns="http://www.w3.org/2000/svg" xmlns:xlink="http://www.w3.org/1999/xlink" version="1.1" x="0px" y="0px" viewBox="0 0 66 66" enable-background="new 0 0 66 66" xml:space="preserve"><g><path d="M61.1,50.2L50,39.1l0.7-0.7c1.7-1.7,1.7-4.4,0-6.1c-1.7-1.7-4.4-1.7-6.1,0l-0.3,0.3L29.5,12.7c-0.2-0.3-0.6-0.4-0.9-0.4   C17.4,13.6,5.2,1.4,5.1,1.3C4.8,1,4.5,0.9,4.1,1C3.8,1.1,3.5,1.4,3.4,1.7c-6.7,20.8,19.8,39.5,27.5,44.4c-1.1,1.6-1,3.9,0.5,5.4   c1.7,1.7,4.4,1.7,6.1,0l0.2-0.2l2.4,2.4c0,0,0,0,0,0c0,0,0,0,0,0l6.3,6.3l0,0l0,0l2.4,2.4c3.4,3.4,8.9,3.4,12.2,0   C64.5,59.1,64.5,53.6,61.1,50.2z M42.3,53.1l9.4-9.4l4.9,4.9L47.2,58L42.3,53.1z M4.9,3.9C8.3,7,18.3,15.1,28.2,14.3L42.9,34   l-4.2,4.2L22.3,21.8c-0.4-0.4-1-0.4-1.4,0c-0.4,0.4-0.4,1,0,1.4l16.4,16.4l-5.1,5.1C25.5,40.3,0.4,23,4.9,3.9z M37,49.2l-0.9,0.9   c-0.9,0.9-2.4,0.9-3.3,0c-0.9-0.9-0.9-2.3,0-3.3c15.6-15.6-2.6,2.6,13.2-13.2c0.9-0.9,2.4-0.9,3.3,0c0.9,0.9,0.9,2.3,0,3.3   l-1.4,1.4c-0.4,0.4-0.4,1,0,1.4l2.4,2.4l-9.4,9.4l-2.4-2.4C38.1,48.8,37.4,48.8,37,49.2z M59.7,61c-2.6,2.6-6.8,2.6-9.4,0l-1.6-1.6   l9.4-9.4l1.6,1.6C62.3,54.2,62.3,58.5,59.7,61z"></path></g></svg>