<svg xmlns="http://www.w3.org/2000/svg" xmlns:xlink="http://www.w3.org/1999/xlink" version="1.1" x="0px" y="0px" viewBox="0 0 199.7 269.814" style="enable-background:new 0 0 199.7 269.814;" xml:space="preserve"><g><path d="M83.099,50.426c-0.217,1.255-0.336,2.543-0.336,3.859c0,12.426,10.074,22.5,22.5,22.5c12.426,0,22.5-10.074,22.5-22.5   c0-1.316-0.12-2.604-0.336-3.859c17.377-16.297,1.132-38.142,1.132-38.142s1.364,22.69-10.212,23.702   c-3.688-2.641-8.202-4.201-13.084-4.201c-4.882,0-9.397,1.56-13.084,4.201c-11.575-1.012-10.212-23.702-10.212-23.702   S65.722,34.129,83.099,50.426z"></path><path d="M21.044,50.302v69.545c-4.038-0.514-7.882,2.115-8.801,6.165c-0.98,4.31,1.721,8.596,6.031,9.574   c0.932,0.211,1.852,0.382,2.77,0.551v132.648h7.279V137.056c1.327,0.088,2.643,0.145,3.935,0.145c0.014,0,0.031,0,0.045,0   c10.289,0,19.352-2.772,26.864-6.836c7.938-4.298,14.206-9.931,19.05-15.411v142.497c0,6.829,5.535,12.363,12.363,12.363   c6.828,0,12.363-5.534,12.363-12.363v-90.134h4.637v90.134c0,6.829,5.535,12.363,12.363,12.363c6.828,0,12.363-5.534,12.363-12.363   V237.74c5.118,5.976,11.538,10.182,19.232,10.197c6.009,0,12.19-2.6,18.387-7.735c6.672-5.418,9.526-12.115,9.452-18.512   c-0.047-7.577-3.33-14.457-6.245-20.809c-2.989-6.321-5.569-12.177-5.499-16.441c0.021-2.146,0.491-3.871,1.811-5.731   c1.152-1.6,3.083-3.327,6.183-5.043l0.837,13.805l23.234-33.241l-38.511,4.402l10.646,7.989c-3.899,2.145-6.833,4.585-8.875,7.403   c-2.348,3.219-3.347,6.903-3.326,10.416c0.072,7.048,3.363,13.495,6.245,19.812c2.958,6.284,5.546,12.372,5.499,17.438   c-0.076,4.251-1.385,7.971-6.551,12.346c-5.281,4.356-9.651,5.901-13.288,5.901c-5.001,0.013-9.764-2.98-14.385-8.905   c-1.702-2.181-3.321-4.724-4.847-7.536V103.947c2.05,1.544,4.181,3.597,6.13,6.339c3.903,5.536,7.352,14.053,7.376,28.079   c0.002,6.648-0.802,14.512-2.763,23.759c-0.917,4.322,1.844,8.57,6.166,9.487c0.56,0.119,1.118,0.176,1.668,0.176   c3.698,0,7.02-2.579,7.819-6.342c2.158-10.178,3.111-19.144,3.111-27.08c0.113-22.967-8.381-37.486-17.511-45.278   c-6.629-5.724-13.111-8.014-16.481-8.898c-0.987-0.458-2.083-0.721-3.243-0.721H85.944c-0.479,0-0.946,0.05-1.402,0.133   c-3.196-0.127-6.292,1.677-7.648,4.784L76.885,88.4c-0.26,0.614-4.338,9.312-11.964,17.397c-3.804,4.052-8.46,7.94-13.872,10.762   c-5.429,2.823-11.563,4.633-18.792,4.642c-1.272,0-2.589-0.076-3.935-0.196V50.395C40.559,48.687,50,37.689,50,24.367   C50,16.4,46.619,9.267,41.288,4.45c2.104,3.882,3.333,8.557,3.333,13.588c0,12.189-7.206,22.287-16.616,24.083L24.71,0h-0.053   l-3.283,41.983C12.271,39.87,5.38,29.956,5.38,18.038c0-5.031,1.228-9.706,3.332-13.588C3.381,9.267,0,16.4,0,24.367   C0,37.459,9.117,48.31,21.044,50.302z"></path></g></svg>